<svg id="originals" xmlns="http://www.w3.org/2000/svg" xmlns:xlink="http://www.w3.org/1999/xlink" viewBox="0 0 671.811 932.2725"><defs><style>.cls-1,.cls-11,.cls-19,.cls-2,.cls-21,.cls-24,.cls-25,.cls-3{fill:none;}.cls-2{stroke:#e6e7e8;}.cls-11,.cls-19,.cls-2,.cls-21,.cls-24,.cls-25,.cls-3{stroke-miterlimit:10;}.cls-2,.cls-3{stroke-width:0.0283px;}.cls-3{stroke:#939598;}.cls-4{fill:#fff;}.cls-5{fill:url(#_2x4);}.cls-12,.cls-13,.cls-15,.cls-18,.cls-22,.cls-6,.cls-7{font-size:19.8425px;}.cls-17,.cls-18,.cls-6,.cls-7{fill:#231f20;}.cls-12,.cls-13,.cls-15,.cls-18,.cls-22,.cls-26,.cls-6,.cls-7{font-family:SegoeScript-Bold, Segoe Script;font-weight:700;}.cls-10,.cls-17,.cls-7,.cls-9{letter-spacing:0em;}.cls-12,.cls-8{fill:#ef4136;}.cls-16,.cls-9{fill:#009444;}.cls-11,.cls-19{stroke:#231f20;}.cls-11{stroke-width:0.4252px;}.cls-13{fill:#6d6e71;}.cls-14{font-size:8.5039px;}.cls-15,.cls-22{fill:#f7941d;}.cls-18,.cls-20{letter-spacing:0em;}.cls-19,.cls-21,.cls-24{stroke-width:1.4173px;}.cls-21{stroke:#92278f;}.cls-22{letter-spacing:-0.0801em;}.cls-23{letter-spacing:0em;}.cls-24{stroke:#f7941d;}.cls-25{stroke:#ed1c24;stroke-width:2.8346px;opacity:0.35;}.cls-26{font-size:42.5197px;fill:#00aeef;}</style><pattern id="_2x4" data-name="2x4" width="5.6693" height="5.6693" patternUnits="userSpaceOnUse" viewBox="0 0 5.669 5.669"><rect class="cls-1" width="5.6693" height="5.6693"/><rect class="cls-2" x="4.252" y="5.6696" width="1.4173" height="1.4173"/><rect class="cls-2" x="5.6693" y="5.6696" width="1.4173" height="1.4173"/><rect class="cls-3" x="4.252" y="5.6696" width="2.8346" height="5.6693"/><rect class="cls-2" x="1.4174" y="5.6696" width="1.4173" height="1.4173"/><rect class="cls-2" x="2.8347" y="5.6696" width="1.4173" height="1.4173"/><rect class="cls-3" x="1.4174" y="5.6696" width="2.8346" height="5.6693"/><rect class="cls-2" x="-1.4173" y="5.6696" width="1.4173" height="1.4173"/><rect class="cls-2" y="5.6696" width="1.4173" height="1.4173"/><rect class="cls-3" x="-1.4173" y="5.6696" width="2.8346" height="5.6693"/><rect class="cls-2" x="4.252" y="2.8349" width="1.4173" height="1.4173"/><rect class="cls-2" x="5.6693" y="2.8349" width="1.4173" height="1.4173"/><rect class="cls-2" x="4.252" y="4.2523" width="1.4173" height="1.4173"/><rect class="cls-2" x="5.6693" y="4.2523" width="1.4173" height="1.4173"/><rect class="cls-2" x="4.252" y="0.0003" width="1.4173" height="1.4173"/><rect class="cls-2" x="5.6693" y="0.0003" width="1.4173" height="1.4173"/><rect class="cls-2" x="4.252" y="1.4176" width="1.4173" height="1.4173"/><rect class="cls-2" x="5.6693" y="1.4176" width="1.4173" height="1.4173"/><rect class="cls-3" x="4.252" y="0.0003" width="2.8346" height="5.6693"/><rect class="cls-2" x="1.4174" y="2.8349" width="1.4173" height="1.4173"/><rect class="cls-2" x="2.8347" y="2.8349" width="1.4173" height="1.4173"/><rect class="cls-2" x="1.4174" y="4.2523" width="1.4173" height="1.4173"/><rect class="cls-2" x="2.8347" y="4.2523" width="1.4173" height="1.4173"/><rect class="cls-2" x="1.4174" y="0.0003" width="1.4173" height="1.4173"/><rect class="cls-2" x="2.8347" y="0.0003" width="1.4173" height="1.4173"/><rect class="cls-2" x="1.4174" y="1.4176" width="1.4173" height="1.4173"/><rect class="cls-2" x="2.8347" y="1.4176" width="1.4173" height="1.4173"/><rect class="cls-3" x="1.4174" y="0.0003" width="2.8346" height="5.6693"/><rect class="cls-2" x="-1.4173" y="2.8349" width="1.4173" height="1.4173"/><rect class="cls-2" y="2.8349" width="1.4173" height="1.4173"/><rect class="cls-2" x="-1.4173" y="4.2523" width="1.4173" height="1.4173"/><rect class="cls-2" y="4.2523" width="1.4173" height="1.4173"/><rect class="cls-2" x="-1.4173" y="0.0003" width="1.4173" height="1.4173"/><rect class="cls-2" y="0.0003" width="1.4173" height="1.4173"/><rect class="cls-2" x="-1.4173" y="1.4176" width="1.4173" height="1.4173"/><rect class="cls-2" y="1.4176" width="1.4173" height="1.4173"/><rect class="cls-3" x="-1.4173" y="0.0003" width="2.8346" height="5.6693"/><rect class="cls-2" x="4.252" y="-1.417" width="1.4173" height="1.4173"/><rect class="cls-2" x="5.6693" y="-1.417" width="1.4173" height="1.4173"/><rect class="cls-3" x="4.252" y="-5.669" width="2.8346" height="5.6693"/><rect class="cls-2" x="1.4174" y="-1.417" width="1.4173" height="1.4173"/><rect class="cls-2" x="2.8347" y="-1.417" width="1.4173" height="1.4173"/><rect class="cls-3" x="1.4174" y="-5.669" width="2.8346" height="5.6693"/><rect class="cls-2" x="-1.4173" y="-1.417" width="1.4173" height="1.4173"/><rect class="cls-2" y="-1.417" width="1.4173" height="1.4173"/><rect class="cls-3" x="-1.4173" y="-5.669" width="2.8346" height="5.6693"/></pattern></defs><rect class="cls-4" width="671.811" height="929.7638"/><rect class="cls-5" width="671.811" height="929.7638"/><text class="cls-6" transform="translate(203.6166 193.3606)">900</text><text class="cls-6" transform="translate(247.0995 186.7532) scale(0.583)">5</text><text class="cls-6" transform="translate(255.5497 193.3606)">X</text><text class="cls-6" transform="translate(270.1117 199.968) scale(0.583)">0</text><text class="cls-6" transform="translate(278.5619 193.3606)"><tspan xml:space="preserve"> + 900</tspan></text><text class="cls-6" transform="translate(349.2411 186.7532) scale(0.583)">4</text><text class="cls-7" transform="translate(357.6913 193.3606)">X</text><text class="cls-6" transform="translate(372.2538 199.968) scale(0.583)">1</text><text class="cls-6" transform="translate(380.704 193.3606)"><tspan xml:space="preserve"> + ...</tspan></text><text class="cls-6" transform="translate(207.1127 22.3434)">235 5591 4709 9<tspan class="cls-8" x="197.7373" y="0">4</tspan><tspan x="0" y="23.811">235 5591 4709 9</tspan><tspan class="cls-8" x="197.7373" y="23.811">8</tspan></text><text class="cls-6" transform="translate(184.2516 229.2725)">1 <tspan class="cls-9" x="22.4292" y="0">235</tspan><tspan class="cls-10" x="65.9121" y="0" xml:space="preserve"> 436 300 000 000 + ...</tspan></text><rect class="cls-11" x="7.0866" y="85.0394" width="68.0315" height="22.6772"/><text class="cls-6" transform="translate(35.9044 104.055)">?</text><rect class="cls-11" x="75.1181" y="85.0394" width="68.0315" height="22.6772"/><text class="cls-6" transform="translate(79.7084 104.055)">(002)</text><rect class="cls-11" x="143.1496" y="85.0394" width="68.0315" height="22.6772"/><text class="cls-6" transform="translate(147.7399 104.055)">(083)</text><rect class="cls-11" x="211.1811" y="85.0394" width="68.0315" height="22.6772"/><text class="cls-6" transform="translate(239.9989 104.055)">?</text><rect class="cls-11" x="279.2126" y="85.0394" width="68.0315" height="22.6772"/><text class="cls-6" transform="translate(308.0304 104.055)">?</text><rect class="cls-11" x="347.2441" y="85.0394" width="68.0315" height="22.6772"/><text class="cls-6" transform="translate(376.0619 104.055)">?</text><rect class="cls-11" x="415.2756" y="85.0394" width="68.0315" height="22.6772"/><text class="cls-12" transform="translate(444.0934 104.055)">?</text><rect class="cls-11" x="483.3071" y="85.0394" width="68.0315" height="22.6772"/><text class="cls-6" transform="translate(512.1249 104.055)">?</text><rect class="cls-11" x="75.1181" y="62.3622" width="68.0315" height="22.6772"/><text class="cls-13" transform="translate(81.598 81.3779)">11/3</text><rect class="cls-11" x="143.1496" y="62.3622" width="68.0315" height="22.6772"/><text class="cls-13" transform="translate(149.6295 81.3779)">11/4</text><rect class="cls-11" x="415.2756" y="62.3622" width="68.0315" height="22.6772"/><text class="cls-12" transform="translate(421.7555 81.3779)">12/3</text><rect class="cls-11" x="75.1181" y="107.7165" width="68.0315" height="22.6772"/><text class="cls-6" transform="translate(98.6595 126.7322)">X<tspan class="cls-14" x="14.5625" y="0">0</tspan></text><rect class="cls-11" x="143.1496" y="107.7165" width="68.0315" height="22.6772"/><text class="cls-6" transform="translate(166.691 126.7322)">X<tspan class="cls-14" x="14.5625" y="0">1</tspan></text><rect class="cls-11" x="211.1811" y="107.7165" width="68.0315" height="22.6772"/><text class="cls-6" transform="translate(234.7225 126.7322)">X<tspan class="cls-14" x="14.5625" y="0">2</tspan></text><rect class="cls-11" x="279.2126" y="107.7165" width="68.0315" height="22.6772"/><text class="cls-6" transform="translate(302.754 126.7322)">X<tspan class="cls-14" x="14.5625" y="0">3</tspan></text><rect class="cls-11" x="347.2441" y="107.7165" width="68.0315" height="22.6772"/><text class="cls-6" transform="translate(370.7855 126.7322)">X<tspan class="cls-14" x="14.5625" y="0">4</tspan></text><rect class="cls-11" x="415.2756" y="107.7165" width="68.0315" height="22.6772"/><text class="cls-6" transform="translate(438.817 126.7322)">X<tspan class="cls-14" x="14.5625" y="0">5</tspan></text><text class="cls-6" transform="translate(155.9055 229.2727)">=</text><text class="cls-6" transform="translate(430.8659 193.8397)">=</text><text class="cls-15" transform="translate(184.2522 285.9655)">1<tspan class="cls-16" x="14.4941" y="0" xml:space="preserve"> 235</tspan><tspan class="cls-17" x="65.9121" y="0" xml:space="preserve"> 559 147 099 4 </tspan><tspan x="250.5313" y="0">??</tspan></text><text class="cls-15" transform="translate(155.9417 260.2909) rotate(29.9999)">-&gt;</text><text class="cls-6" transform="translate(482.2778 285.9657)">/ 900</text><text class="cls-6" transform="translate(545.1089 279.3582) scale(0.583)">5</text><text class="cls-18" transform="translate(553.5591 285.9657)"><tspan xml:space="preserve">  ==&gt;  2</tspan></text><text class="cls-15" transform="translate(470.6639 268.4171) rotate(-29.9999)">&lt;-</text><text class="cls-6" transform="translate(184.2518 314.3123)">1 180 980 000 000 000</text><text class="cls-6" transform="translate(221.1023 342.6582)">54 579 147 099 4 ??</text><line class="cls-19" x1="182.8346" y1="323.1496" x2="454.9606" y2="323.1496"/><text class="cls-6" transform="translate(482.2775 342.6585)">/ 900</text><text class="cls-6" transform="translate(545.1085 336.0511) scale(0.583)">4</text><text class="cls-18" transform="translate(553.5587 342.6585)"><tspan xml:space="preserve">  ==&gt;  83</tspan></text><text class="cls-6" transform="translate(221.1025 371.005)">54 456 300 000 000</text><text class="cls-6" transform="translate(257.9529 399.3515)">122 847 099 4 ??</text><text class="cls-6" transform="translate(257.9528 427.6979)">122 472 000 000</text><text class="cls-6" transform="translate(308.9765 456.0444)">375 099 4 ??</text><text class="cls-6" transform="translate(308.9765 484.3908)">375 030 000</text><text class="cls-6" transform="translate(482.2777 399.3512)">/ 900</text><text class="cls-6" transform="translate(545.1088 392.7438) scale(0.583)">3</text><text class="cls-18" transform="translate(553.559 399.3512)"><tspan xml:space="preserve">  ==&gt;  168</tspan></text><text class="cls-6" transform="translate(482.2775 456.0439)">/ 900</text><text class="cls-6" transform="translate(545.1086 449.4365) scale(0.583)">2</text><text class="cls-18" transform="translate(553.5588 456.0439)"><tspan xml:space="preserve">  ==&gt;  463</tspan></text><text class="cls-6" transform="translate(374.1735 512.7373)">69 4 ??</text><text class="cls-6" transform="translate(374.1733 541.0837)">69 300</text><text class="cls-6" transform="translate(411.0234 569.4302)">1 ??</text><text class="cls-6" transform="translate(482.2773 512.7374)">/ 900</text><text class="cls-6" transform="translate(545.1083 506.1299) scale(0.583)">1</text><text class="cls-18" transform="translate(553.5585 512.7374)"><tspan xml:space="preserve">  ==&gt;  77</tspan></text><line class="cls-19" x1="219.685" y1="379.8425" x2="454.9606" y2="379.8425"/><line class="cls-19" x1="256.5354" y1="436.5354" x2="454.9606" y2="436.5354"/><line class="cls-19" x1="307.5591" y1="493.2283" x2="454.9606" y2="493.2283"/><text class="cls-6" transform="translate(482.2777 569.4447)">/ 900</text><text class="cls-6" transform="translate(545.1087 562.8373) scale(0.583)">0</text><text class="cls-18" transform="translate(553.5589 569.4447)"><tspan xml:space="preserve">  ==&gt;  1??</tspan></text><line class="cls-19" x1="372.7559" y1="549.9213" x2="454.9606" y2="549.9213"/><text class="cls-12" transform="translate(411.0236 597.7762)">5 ??</text><text class="cls-6" transform="translate(482.2779 597.7907)">/ 900</text><text class="cls-6" transform="translate(545.1089 591.1833) scale(0.583)">0</text><text class="cls-6" transform="translate(553.5591 597.7907)"><tspan class="cls-20" xml:space="preserve">  ==&gt;  </tspan><tspan class="cls-8" x="67.957" y="0">5??</tspan></text><text class="cls-15" transform="translate(40.3453 695.675)">1<tspan class="cls-17" x="14.4941" y="0">23 513 814 367 88</tspan><tspan x="234.6611" y="0">?</tspan></text><text class="cls-15" transform="translate(12.035 670.0004) rotate(29.9999)">-&gt;</text><text class="cls-6" transform="translate(338.371 695.6751)">/ 900</text><text class="cls-6" transform="translate(401.202 689.0677) scale(0.583)">4</text><text class="cls-18" transform="translate(409.6522 695.6751)"><tspan xml:space="preserve">  ==&gt;  188</tspan></text><text class="cls-15" transform="translate(298.412 678.1266) rotate(-29.9999)">&lt;-</text><text class="cls-6" transform="translate(40.345 724.0218)">123 346 800 000 000</text><text class="cls-6" transform="translate(90.7085 752.3676)">167 014 367 88?</text><line class="cls-19" x1="38.9278" y1="732.859" x2="311.0538" y2="732.859"/><text class="cls-6" transform="translate(338.3706 752.368)">/ 900</text><text class="cls-6" transform="translate(401.2017 745.7606) scale(0.583)">3</text><text class="cls-18" transform="translate(409.6519 752.368)"><tspan xml:space="preserve">  ==&gt;  229</tspan></text><text class="cls-6" transform="translate(90.7084 780.7145)">166 941 000 000</text><text class="cls-6" transform="translate(155.9057 809.0609)">73 367 88?</text><text class="cls-6" transform="translate(155.9056 837.4073)">72 900 000</text><text class="cls-6" transform="translate(192.7558 865.7538)">467 88?</text><text class="cls-6" transform="translate(192.7557 894.1002)">467 100</text><text class="cls-6" transform="translate(338.3708 809.0606)">/ 900</text><text class="cls-6" transform="translate(401.2019 802.4532) scale(0.583)">2</text><text class="cls-18" transform="translate(409.6521 809.0606)"><tspan xml:space="preserve">  ==&gt;  90</tspan></text><text class="cls-6" transform="translate(338.3707 865.7533)">/ 900</text><text class="cls-6" transform="translate(401.2017 859.1459) scale(0.583)">1</text><text class="cls-18" transform="translate(409.6519 865.7533)"><tspan xml:space="preserve">  ==&gt;  519</tspan></text><text class="cls-6" transform="translate(243.7794 922.4467)">78?</text><text class="cls-6" transform="translate(338.3704 922.4468)">/ 900</text><text class="cls-6" transform="translate(401.2015 915.8394) scale(0.583)">0</text><text class="cls-18" transform="translate(409.6517 922.4468)"><tspan xml:space="preserve">  ==&gt;  78?</tspan></text><line class="cls-19" x1="75.7782" y1="789.552" x2="311.0538" y2="789.552"/><line class="cls-19" x1="112.6286" y1="846.2449" x2="311.0538" y2="846.2449"/><line class="cls-19" x1="163.6522" y1="902.9378" x2="311.0538" y2="902.9378"/><text class="cls-6" transform="translate(553.144 695.6766)">18</text><text class="cls-6" transform="translate(553.1436 752.3695)">742</text><text class="cls-6" transform="translate(553.1439 809.0621)">819</text><text class="cls-6" transform="translate(553.1437 865.7548)">51</text><text class="cls-6" transform="translate(553.1435 922.4483)">888</text><ellipse class="cls-21" cx="492.931" cy="801.8847" rx="23.3042" ry="14.3327"/><text class="cls-22" transform="translate(625.2569 898.3262) rotate(-90)">W<tspan class="cls-23" x="18.5059" y="0">ithout the last digit</tspan></text><ellipse class="cls-24" cx="573.2255" cy="801.8852" rx="23.3042" ry="14.3327"/><line class="cls-25" x1="541.4348" y1="647.8696" x2="604.0435" y2="923.7638"/><line class="cls-25" x1="607.7565" y1="647.6048" x2="545.1478" y2="923.4991"/><text class="cls-26" transform="translate(27.1304 898.3262)">#15</text><text class="cls-26" transform="translate(45.9126 361.8611)">#11<tspan class="cls-8"><tspan x="0" y="51.0234">#13</tspan></tspan></text><rect class="cls-11" x="7.0866" y="623.622" width="68.0315" height="22.6772"/><text class="cls-6" transform="translate(35.9044 642.6377)">?</text><rect class="cls-11" x="75.1181" y="623.622" width="68.0315" height="22.6772"/><text class="cls-6" transform="translate(103.9359 642.6377)">?</text><rect class="cls-11" x="143.1496" y="623.622" width="68.0315" height="22.6772"/><text class="cls-6" transform="translate(147.7399 642.6377)">(090)</text><rect class="cls-11" x="211.1811" y="623.622" width="68.0315" height="22.6772"/><text class="cls-6" transform="translate(239.9989 642.6377)">?</text><rect class="cls-11" x="279.2126" y="623.622" width="68.0315" height="22.6772"/><text class="cls-6" transform="translate(308.0304 642.6377)">?</text><rect class="cls-11" x="143.1496" y="600.9449" width="68.0315" height="22.6772"/><text class="cls-13" transform="translate(149.6295 619.9605)">14/3</text><rect class="cls-11" x="211.1811" y="600.9449" width="68.0315" height="22.6772"/><text class="cls-13" transform="translate(217.661 619.9605)">15/0</text></svg>