<svg id="originals" xmlns="http://www.w3.org/2000/svg" xmlns:xlink="http://www.w3.org/1999/xlink" viewBox="0 0 841.8898 272.126"><defs><style>.cls-1,.cls-2,.cls-3{fill:none;}.cls-2{stroke:#e6e7e8;}.cls-2,.cls-3{stroke-miterlimit:10;stroke-width:0.0283px;}.cls-3{stroke:#939598;}.cls-4{fill:url(#_2x4);}.cls-5{font-size:19.8425px;font-family:SegoeScript-Bold, Segoe Script;font-weight:700;}.cls-12,.cls-5{fill:#231f20;}.cls-10,.cls-11,.cls-6{font-size:9.9213px;}.cls-7{fill:#009444;}.cls-14,.cls-7,.cls-8,.cls-9{opacity:0.25;}.cls-8{fill:#1c75bc;}.cls-9{fill:#f26522;}.cls-10{letter-spacing:0em;}.cls-11{letter-spacing:0em;}.cls-13{fill:#6d6e71;opacity:0.15;}.cls-14{fill:#ffde17;}</style><pattern id="_2x4" data-name="2x4" width="5.6693" height="5.6693" patternUnits="userSpaceOnUse" viewBox="0 0 5.669 5.669"><rect class="cls-1" width="5.6693" height="5.6693"/><rect class="cls-2" x="4.252" y="5.6696" width="1.4173" height="1.4173"/><rect class="cls-2" x="5.6693" y="5.6696" width="1.4173" height="1.4173"/><rect class="cls-3" x="4.252" y="5.6696" width="2.8346" height="5.6693"/><rect class="cls-2" x="1.4174" y="5.6696" width="1.4173" height="1.4173"/><rect class="cls-2" x="2.8347" y="5.6696" width="1.4173" height="1.4173"/><rect class="cls-3" x="1.4174" y="5.6696" width="2.8346" height="5.6693"/><rect class="cls-2" x="-1.4173" y="5.6696" width="1.4173" height="1.4173"/><rect class="cls-2" y="5.6696" width="1.4173" height="1.4173"/><rect class="cls-3" x="-1.4173" y="5.6696" width="2.8346" height="5.6693"/><rect class="cls-2" x="4.252" y="2.8349" width="1.4173" height="1.4173"/><rect class="cls-2" x="5.6693" y="2.8349" width="1.4173" height="1.4173"/><rect class="cls-2" x="4.252" y="4.2523" width="1.4173" height="1.4173"/><rect class="cls-2" x="5.6693" y="4.2523" width="1.4173" height="1.4173"/><rect class="cls-2" x="4.252" y="0.0003" width="1.4173" height="1.4173"/><rect class="cls-2" x="5.6693" y="0.0003" width="1.4173" height="1.4173"/><rect class="cls-2" x="4.252" y="1.4176" width="1.4173" height="1.4173"/><rect class="cls-2" x="5.6693" y="1.4176" width="1.4173" height="1.4173"/><rect class="cls-3" x="4.252" y="0.0003" width="2.8346" height="5.6693"/><rect class="cls-2" x="1.4174" y="2.8349" width="1.4173" height="1.4173"/><rect class="cls-2" x="2.8347" y="2.8349" width="1.4173" height="1.4173"/><rect class="cls-2" x="1.4174" y="4.2523" width="1.4173" height="1.4173"/><rect class="cls-2" x="2.8347" y="4.2523" width="1.4173" height="1.4173"/><rect class="cls-2" x="1.4174" y="0.0003" width="1.4173" height="1.4173"/><rect class="cls-2" x="2.8347" y="0.0003" width="1.4173" height="1.4173"/><rect class="cls-2" x="1.4174" y="1.4176" width="1.4173" height="1.4173"/><rect class="cls-2" x="2.8347" y="1.4176" width="1.4173" height="1.4173"/><rect class="cls-3" x="1.4174" y="0.0003" width="2.8346" height="5.6693"/><rect class="cls-2" x="-1.4173" y="2.8349" width="1.4173" height="1.4173"/><rect class="cls-2" y="2.8349" width="1.4173" height="1.4173"/><rect class="cls-2" x="-1.4173" y="4.2523" width="1.4173" height="1.4173"/><rect class="cls-2" y="4.2523" width="1.4173" height="1.4173"/><rect class="cls-2" x="-1.4173" y="0.0003" width="1.4173" height="1.4173"/><rect class="cls-2" y="0.0003" width="1.4173" height="1.4173"/><rect class="cls-2" x="-1.4173" y="1.4176" width="1.4173" height="1.4173"/><rect class="cls-2" y="1.4176" width="1.4173" height="1.4173"/><rect class="cls-3" x="-1.4173" y="0.0003" width="2.8346" height="5.6693"/><rect class="cls-2" x="4.252" y="-1.417" width="1.4173" height="1.4173"/><rect class="cls-2" x="5.6693" y="-1.417" width="1.4173" height="1.4173"/><rect class="cls-3" x="4.252" y="-5.669" width="2.8346" height="5.6693"/><rect class="cls-2" x="1.4174" y="-1.417" width="1.4173" height="1.4173"/><rect class="cls-2" x="2.8347" y="-1.417" width="1.4173" height="1.4173"/><rect class="cls-3" x="1.4174" y="-5.669" width="2.8346" height="5.6693"/><rect class="cls-2" x="-1.4173" y="-1.417" width="1.4173" height="1.4173"/><rect class="cls-2" y="-1.417" width="1.4173" height="1.4173"/><rect class="cls-3" x="-1.4173" y="-5.669" width="2.8346" height="5.6693"/></pattern></defs><rect class="cls-4" width="841.8898" height="272.126"/><text class="cls-5" transform="translate(75.4882 20.9388)">L</text><text class="cls-5" transform="translate(111.6905 20.939)">0 : N<tspan class="cls-6" x="52.8917" y="0">c</tspan><tspan x="58.3317" y="0">-1</tspan></text><text class="cls-5" transform="translate(218.0734 20.9388)">R</text><text class="cls-5" transform="translate(36.5297 40.2756)">0</text><text class="cls-5" transform="translate(36.5297 74.2913)">1</text><text class="cls-5" transform="translate(36.5296 108.307)">2</text><text class="cls-5" transform="translate(31.1619 176.3385)">n<tspan class="cls-6" x="14.4653" y="0">r</tspan></text><rect class="cls-7" x="284.8819" y="22.6772" width="48.189" height="22.6772"/><rect class="cls-8" x="284.8819" y="56.6929" width="48.189" height="22.6772"/><rect class="cls-9" x="284.8819" y="90.7087" width="48.189" height="22.6772"/><text class="cls-5" transform="translate(340.2446 109.7244)">X &amp; C + [N<tspan class="cls-10" x="115.2568" y="0">r</tspan><tspan x="120.6538" y="0" xml:space="preserve"> - 1] mod 3</tspan></text><text class="cls-5" transform="translate(340.2449 41.6925)">X &amp; [N<tspan class="cls-10" x="73.4307" y="0">r</tspan><tspan x="78.8276" y="0" xml:space="preserve"> - 1] div 3</tspan></text><text class="cls-5" transform="translate(340.2449 75.708)">X &amp; [N<tspan class="cls-6" x="73.4307" y="0">c</tspan><tspan x="78.8711" y="0">-1]</tspan></text><text class="cls-5" transform="translate(340.2444 177.7555)">X = [n<tspan class="cls-11" x="65.37" y="0">r</tspan><tspan x="70.7663" y="0">] div 3</tspan></text><text class="cls-5" transform="translate(340.1575 211.7716)">C = 3 [p - 1]</text><rect class="cls-12" x="233.8583" y="22.6772" width="2.8346" height="22.6772"/><rect class="cls-12" x="231.0236" y="22.6772" width="2.8346" height="22.6772"/><rect class="cls-12" x="228.189" y="22.6772" width="2.8346" height="22.6772"/><rect class="cls-12" x="219.685" y="22.6772" width="2.8346" height="22.6772"/><rect class="cls-12" x="214.0157" y="22.6772" width="2.8346" height="22.6772"/><rect class="cls-12" x="208.3465" y="22.6772" width="2.8346" height="22.6772"/><rect class="cls-12" x="205.5118" y="22.6772" width="2.8346" height="22.6772"/><rect class="cls-12" x="202.6772" y="22.6772" width="2.8346" height="22.6772"/><rect class="cls-12" x="89.2913" y="22.6772" width="2.8346" height="22.6772"/><rect class="cls-12" x="86.4567" y="22.6772" width="2.8346" height="22.6772"/><rect class="cls-12" x="83.622" y="22.6772" width="2.8346" height="22.6772"/><rect class="cls-12" x="75.1181" y="22.6772" width="2.8346" height="22.6772"/><rect class="cls-12" x="69.4488" y="22.6772" width="2.8346" height="22.6772"/><rect class="cls-12" x="63.7795" y="22.6772" width="2.8346" height="22.6772"/><rect class="cls-12" x="60.9449" y="22.6772" width="2.8346" height="22.6772"/><rect class="cls-12" x="58.1102" y="22.6772" width="2.8346" height="22.6772"/><rect class="cls-12" x="236.6929" y="56.693" width="2.8346" height="22.6772"/><rect class="cls-12" x="233.8583" y="56.693" width="2.8346" height="22.6772"/><rect class="cls-12" x="225.3543" y="56.693" width="2.8346" height="22.6772"/><rect class="cls-12" x="219.685" y="56.693" width="2.8346" height="22.6772"/><rect class="cls-12" x="214.0157" y="56.693" width="2.8346" height="22.6772"/><rect class="cls-12" x="211.1811" y="56.693" width="2.8346" height="22.6772"/><rect class="cls-12" x="208.3465" y="56.693" width="2.8346" height="22.6772"/><rect class="cls-12" x="205.5118" y="56.693" width="2.8346" height="22.6772"/><rect class="cls-12" x="202.6772" y="56.693" width="2.8346" height="22.6772"/><rect class="cls-12" x="92.126" y="56.693" width="2.8346" height="22.6772"/><rect class="cls-12" x="77.9528" y="56.693" width="2.8346" height="22.6772"/><rect class="cls-12" x="72.2835" y="56.693" width="2.8346" height="22.6772"/><rect class="cls-12" x="66.6142" y="56.693" width="2.8346" height="22.6772"/><rect class="cls-12" x="63.7795" y="56.693" width="2.8346" height="22.6772"/><rect class="cls-12" x="60.9449" y="56.693" width="2.8346" height="22.6772"/><rect class="cls-12" x="58.1102" y="56.693" width="2.8346" height="22.6772"/><rect class="cls-12" x="92.126" y="90.7087" width="2.8346" height="22.6772"/><rect class="cls-12" x="89.2913" y="90.7087" width="2.8346" height="22.6772"/><rect class="cls-12" x="86.4567" y="90.7087" width="2.8346" height="22.6772"/><rect class="cls-12" x="83.622" y="90.7087" width="2.8346" height="22.6772"/><rect class="cls-12" x="80.7874" y="90.7087" width="2.8346" height="22.6772"/><rect class="cls-12" x="72.2835" y="90.7087" width="2.8346" height="22.6772"/><rect class="cls-12" x="66.6142" y="90.7087" width="2.8346" height="22.6772"/><rect class="cls-12" x="60.9449" y="90.7087" width="2.8346" height="22.6772"/><rect class="cls-12" x="58.1102" y="90.7087" width="2.8346" height="22.6772"/><rect class="cls-12" x="236.6929" y="90.7087" width="2.8346" height="22.6772"/><rect class="cls-12" x="233.8583" y="90.7087" width="2.8346" height="22.6772"/><rect class="cls-12" x="231.0236" y="90.7087" width="2.8346" height="22.6772"/><rect class="cls-12" x="228.189" y="90.7087" width="2.8346" height="22.6772"/><rect class="cls-12" x="214.0157" y="90.7087" width="2.8346" height="22.6772"/><rect class="cls-12" x="208.3465" y="90.7087" width="2.8346" height="22.6772"/><rect class="cls-12" x="202.6772" y="90.7087" width="2.8346" height="22.6772"/><rect class="cls-12" x="94.9606" y="158.7402" width="2.8346" height="22.6772"/><rect class="cls-12" x="77.9528" y="158.7402" width="2.8346" height="22.6772"/><rect class="cls-12" x="75.1181" y="158.7402" width="2.8346" height="22.6772"/><rect class="cls-12" x="72.2835" y="158.7402" width="2.8346" height="22.6772"/><rect class="cls-12" x="66.6142" y="158.7402" width="2.8346" height="22.6772"/><rect class="cls-12" x="60.9449" y="158.7402" width="2.8346" height="22.6772"/><rect class="cls-12" x="58.1102" y="158.7402" width="2.8346" height="22.6772"/><rect class="cls-12" x="233.8583" y="158.7402" width="2.8346" height="22.6772"/><rect class="cls-12" x="222.5197" y="158.7402" width="2.8346" height="22.6772"/><rect class="cls-12" x="219.685" y="158.7402" width="2.8346" height="22.6772"/><rect class="cls-12" x="216.8504" y="158.7402" width="2.8346" height="22.6772"/><rect class="cls-12" x="211.1811" y="158.7402" width="2.8346" height="22.6772"/><rect class="cls-12" x="205.5118" y="158.7402" width="2.8346" height="22.6772"/><rect class="cls-12" x="202.6772" y="158.7402" width="2.8346" height="22.6772"/><rect class="cls-12" x="92.126" y="226.7717" width="2.8346" height="22.6772"/><rect class="cls-12" x="89.2913" y="226.7717" width="2.8346" height="22.6772"/><rect class="cls-12" x="86.4567" y="226.7717" width="2.8346" height="22.6772"/><rect class="cls-12" x="77.9528" y="226.7717" width="2.8346" height="22.6772"/><rect class="cls-12" x="75.1181" y="226.7717" width="2.8346" height="22.6772"/><rect class="cls-12" x="72.2835" y="226.7717" width="2.8346" height="22.6772"/><rect class="cls-12" x="63.7795" y="226.7717" width="2.8346" height="22.6772"/><rect class="cls-12" x="58.1102" y="226.7717" width="2.8346" height="22.6772"/><rect class="cls-12" x="236.6929" y="226.7717" width="2.8346" height="22.6772"/><rect class="cls-12" x="233.8583" y="226.7717" width="2.8346" height="22.6772"/><rect class="cls-12" x="231.0236" y="226.7717" width="2.8346" height="22.6772"/><rect class="cls-12" x="222.5197" y="226.7717" width="2.8346" height="22.6772"/><rect class="cls-12" x="219.685" y="226.7717" width="2.8346" height="22.6772"/><rect class="cls-12" x="216.8504" y="226.7717" width="2.8346" height="22.6772"/><rect class="cls-12" x="208.3465" y="226.7717" width="2.8346" height="22.6772"/><rect class="cls-12" x="202.6772" y="226.7717" width="2.8346" height="22.6772"/><rect class="cls-8" x="202.6772" y="22.6772" width="48.189" height="22.6772"/><rect class="cls-8" x="58.1102" y="90.7087" width="48.189" height="22.6772"/><rect class="cls-8" x="202.6772" y="226.7717" width="48.189" height="22.6772"/><rect class="cls-7" x="202.6772" y="56.693" width="48.189" height="22.6772"/><rect class="cls-7" x="202.6772" y="158.7402" width="48.189" height="22.6772"/><rect class="cls-7" x="58.1102" y="226.7717" width="48.189" height="22.6772"/><rect class="cls-7" x="58.1102" y="22.6772" width="48.189" height="22.6772"/><rect class="cls-9" x="202.6772" y="90.7087" width="48.189" height="22.6772"/><rect class="cls-9" x="58.1102" y="158.7402" width="48.189" height="22.6772"/><rect class="cls-9" x="58.1102" y="56.6929" width="48.189" height="22.6772"/><text class="cls-5" transform="translate(1.7952 244.3698)">N<tspan class="cls-6" x="16.6162" y="0">r</tspan><tspan x="22.0127" y="0">-1</tspan></text><rect class="cls-12" x="817.7953" y="192.7559" width="2.8346" height="22.6772"/><rect class="cls-12" x="814.9606" y="192.7559" width="2.8346" height="22.6772"/><rect class="cls-12" x="812.126" y="192.7559" width="2.8346" height="22.6772"/><rect class="cls-12" x="797.9528" y="192.7559" width="2.8346" height="22.6772"/><rect class="cls-12" x="795.1181" y="192.7559" width="2.8346" height="22.6772"/><rect class="cls-12" x="789.4488" y="192.7559" width="2.8346" height="22.6772"/><rect class="cls-12" x="786.6142" y="192.7559" width="2.8346" height="22.6772"/><rect class="cls-12" x="783.7795" y="192.7559" width="2.8346" height="22.6772"/><rect class="cls-12" x="775.2756" y="192.7559" width="2.8346" height="22.6772"/><rect class="cls-12" x="766.7717" y="192.7559" width="2.8346" height="22.6772"/><rect class="cls-12" x="763.937" y="192.7559" width="2.8346" height="22.6772"/><rect class="cls-12" x="761.1024" y="192.7559" width="2.8346" height="22.6772"/><rect class="cls-12" x="758.2677" y="192.7559" width="2.8346" height="22.6772"/><rect class="cls-12" x="755.4331" y="192.7559" width="2.8346" height="22.6772"/><rect class="cls-12" x="746.9291" y="192.7559" width="2.8346" height="22.6772"/><rect class="cls-12" x="744.0945" y="192.7559" width="2.8346" height="22.6772"/><rect class="cls-12" x="741.2598" y="192.7559" width="2.8346" height="22.6772"/><rect class="cls-12" x="735.5906" y="192.7559" width="2.8346" height="22.6772"/><rect class="cls-12" x="732.7559" y="192.7559" width="2.8346" height="22.6772"/><rect class="cls-12" x="727.0866" y="192.7559" width="2.8346" height="22.6772"/><rect class="cls-12" x="721.4173" y="192.7559" width="2.8346" height="22.6772"/><rect class="cls-12" x="718.5827" y="192.7559" width="2.8346" height="22.6772"/><rect class="cls-12" x="715.748" y="192.7559" width="2.8346" height="22.6772"/><rect class="cls-12" x="712.9134" y="192.7559" width="2.8346" height="22.6772"/><rect class="cls-12" x="710.0787" y="192.7559" width="2.8346" height="22.6772"/><rect class="cls-12" x="701.5748" y="192.7559" width="2.8346" height="22.6772"/><rect class="cls-12" x="698.7402" y="192.7559" width="2.8346" height="22.6772"/><rect class="cls-12" x="693.0709" y="192.7559" width="2.8346" height="22.6772"/><rect class="cls-12" x="678.8976" y="192.7559" width="2.8346" height="22.6772"/><rect class="cls-12" x="814.9606" y="158.7402" width="2.8346" height="22.6772"/><rect class="cls-12" x="803.622" y="158.7402" width="2.8346" height="22.6772"/><rect class="cls-12" x="795.1181" y="158.7402" width="2.8346" height="22.6772"/><rect class="cls-12" x="792.2835" y="158.7402" width="2.8346" height="22.6772"/><rect class="cls-12" x="786.6142" y="158.7402" width="2.8346" height="22.6772"/><rect class="cls-12" x="783.7795" y="158.7402" width="2.8346" height="22.6772"/><rect class="cls-12" x="780.9449" y="158.7402" width="2.8346" height="22.6772"/><rect class="cls-12" x="778.1102" y="158.7402" width="2.8346" height="22.6772"/><rect class="cls-12" x="775.2756" y="158.7402" width="2.8346" height="22.6772"/><rect class="cls-12" x="769.6063" y="158.7402" width="2.8346" height="22.6772"/><rect class="cls-12" x="766.7717" y="158.7402" width="2.8346" height="22.6772"/><rect class="cls-12" x="761.1024" y="158.7402" width="2.8346" height="22.6772"/><rect class="cls-12" x="746.9291" y="158.7402" width="2.8346" height="22.6772"/><rect class="cls-12" x="738.4252" y="158.7402" width="2.8346" height="22.6772"/><rect class="cls-12" x="735.5906" y="158.7402" width="2.8346" height="22.6772"/><rect class="cls-12" x="732.7559" y="158.7402" width="2.8346" height="22.6772"/><rect class="cls-12" x="729.9213" y="158.7402" width="2.8346" height="22.6772"/><rect class="cls-12" x="727.0866" y="158.7402" width="2.8346" height="22.6772"/><rect class="cls-12" x="721.4173" y="158.7402" width="2.8346" height="22.6772"/><rect class="cls-12" x="718.5827" y="158.7402" width="2.8346" height="22.6772"/><rect class="cls-12" x="710.0787" y="158.7402" width="2.8346" height="22.6772"/><rect class="cls-12" x="707.2441" y="158.7402" width="2.8346" height="22.6772"/><rect class="cls-12" x="704.4094" y="158.7402" width="2.8346" height="22.6772"/><rect class="cls-12" x="695.9055" y="158.7402" width="2.8346" height="22.6772"/><rect class="cls-12" x="684.5669" y="158.7402" width="2.8346" height="22.6772"/><rect class="cls-12" x="681.7323" y="158.7402" width="2.8346" height="22.6772"/><rect class="cls-12" x="678.8976" y="158.7402" width="2.8346" height="22.6772"/><rect class="cls-12" x="814.9606" y="124.7244" width="2.8346" height="22.6772"/><rect class="cls-12" x="812.126" y="124.7244" width="2.8346" height="22.6772"/><rect class="cls-12" x="809.2913" y="124.7244" width="2.8346" height="22.6772"/><rect class="cls-12" x="797.9528" y="124.7244" width="2.8346" height="22.6772"/><rect class="cls-12" x="792.2835" y="124.7244" width="2.8346" height="22.6772"/><rect class="cls-12" x="780.9449" y="124.7244" width="2.8346" height="22.6772"/><rect class="cls-12" x="778.1102" y="124.7244" width="2.8346" height="22.6772"/><rect class="cls-12" x="775.2756" y="124.7244" width="2.8346" height="22.6772"/><rect class="cls-12" x="769.6063" y="124.7244" width="2.8346" height="22.6772"/><rect class="cls-12" x="766.7717" y="124.7244" width="2.8346" height="22.6772"/><rect class="cls-12" x="749.7638" y="124.7244" width="2.8346" height="22.6772"/><rect class="cls-12" x="746.9291" y="124.7244" width="2.8346" height="22.6772"/><rect class="cls-12" x="735.5906" y="124.7244" width="2.8346" height="22.6772"/><rect class="cls-12" x="727.0866" y="124.7244" width="2.8346" height="22.6772"/><rect class="cls-12" x="715.748" y="124.7244" width="2.8346" height="22.6772"/><rect class="cls-12" x="712.9134" y="124.7244" width="2.8346" height="22.6772"/><rect class="cls-12" x="710.0787" y="124.7244" width="2.8346" height="22.6772"/><rect class="cls-12" x="704.4094" y="124.7244" width="2.8346" height="22.6772"/><rect class="cls-12" x="701.5748" y="124.7244" width="2.8346" height="22.6772"/><rect class="cls-12" x="690.2362" y="124.7244" width="2.8346" height="22.6772"/><rect class="cls-12" x="681.7323" y="124.7244" width="2.8346" height="22.6772"/><rect class="cls-12" x="678.8976" y="124.7244" width="2.8346" height="22.6772"/><rect class="cls-12" x="817.7953" y="90.7087" width="2.8346" height="22.6772"/><rect class="cls-12" x="814.9606" y="90.7087" width="2.8346" height="22.6772"/><rect class="cls-12" x="812.126" y="90.7087" width="2.8346" height="22.6772"/><rect class="cls-12" x="809.2913" y="90.7087" width="2.8346" height="22.6772"/><rect class="cls-12" x="806.4567" y="90.7087" width="2.8346" height="22.6772"/><rect class="cls-12" x="800.7874" y="90.7087" width="2.8346" height="22.6772"/><rect class="cls-12" x="797.9528" y="90.7087" width="2.8346" height="22.6772"/><rect class="cls-12" x="780.9449" y="90.7087" width="2.8346" height="22.6772"/><rect class="cls-12" x="775.2756" y="90.7087" width="2.8346" height="22.6772"/><rect class="cls-12" x="769.6063" y="90.7087" width="2.8346" height="22.6772"/><rect class="cls-12" x="766.7717" y="90.7087" width="2.8346" height="22.6772"/><rect class="cls-12" x="763.937" y="90.7087" width="2.8346" height="22.6772"/><rect class="cls-12" x="761.1024" y="90.7087" width="2.8346" height="22.6772"/><rect class="cls-12" x="752.5984" y="90.7087" width="2.8346" height="22.6772"/><rect class="cls-12" x="744.0945" y="90.7087" width="2.8346" height="22.6772"/><rect class="cls-12" x="741.2598" y="90.7087" width="2.8346" height="22.6772"/><rect class="cls-12" x="729.9213" y="90.7087" width="2.8346" height="22.6772"/><rect class="cls-12" x="727.0866" y="90.7087" width="2.8346" height="22.6772"/><rect class="cls-12" x="715.748" y="90.7087" width="2.8346" height="22.6772"/><rect class="cls-12" x="712.9134" y="90.7087" width="2.8346" height="22.6772"/><rect class="cls-12" x="710.0787" y="90.7087" width="2.8346" height="22.6772"/><rect class="cls-12" x="704.4094" y="90.7087" width="2.8346" height="22.6772"/><rect class="cls-12" x="701.5748" y="90.7087" width="2.8346" height="22.6772"/><rect class="cls-12" x="698.7402" y="90.7087" width="2.8346" height="22.6772"/><rect class="cls-12" x="693.0709" y="90.7087" width="2.8346" height="22.6772"/><rect class="cls-12" x="690.2362" y="90.7087" width="2.8346" height="22.6772"/><rect class="cls-12" x="687.4016" y="90.7087" width="2.8346" height="22.6772"/><rect class="cls-12" x="684.5669" y="90.7087" width="2.8346" height="22.6772"/><rect class="cls-12" x="678.8976" y="90.7087" width="2.8346" height="22.6772"/><rect class="cls-12" x="814.9606" y="56.6929" width="2.8346" height="22.6772"/><rect class="cls-12" x="812.126" y="56.6929" width="2.8346" height="22.6772"/><rect class="cls-12" x="803.622" y="56.6929" width="2.8346" height="22.6772"/><rect class="cls-12" x="800.7874" y="56.6929" width="2.8346" height="22.6772"/><rect class="cls-12" x="797.9528" y="56.6929" width="2.8346" height="22.6772"/><rect class="cls-12" x="792.2835" y="56.6929" width="2.8346" height="22.6772"/><rect class="cls-12" x="780.9449" y="56.6929" width="2.8346" height="22.6772"/><rect class="cls-12" x="778.1102" y="56.6929" width="2.8346" height="22.6772"/><rect class="cls-12" x="775.2756" y="56.6929" width="2.8346" height="22.6772"/><rect class="cls-12" x="769.6063" y="56.6929" width="2.8346" height="22.6772"/><rect class="cls-12" x="766.7717" y="56.6929" width="2.8346" height="22.6772"/><rect class="cls-12" x="763.937" y="56.6929" width="2.8346" height="22.6772"/><rect class="cls-12" x="761.1024" y="56.6929" width="2.8346" height="22.6772"/><rect class="cls-12" x="752.5984" y="56.6929" width="2.8346" height="22.6772"/><rect class="cls-12" x="741.2598" y="56.6929" width="2.8346" height="22.6772"/><rect class="cls-12" x="738.4252" y="56.6929" width="2.8346" height="22.6772"/><rect class="cls-12" x="735.5906" y="56.6929" width="2.8346" height="22.6772"/><rect class="cls-12" x="732.7559" y="56.6929" width="2.8346" height="22.6772"/><rect class="cls-12" x="727.0866" y="56.6929" width="2.8346" height="22.6772"/><rect class="cls-12" x="721.4173" y="56.6929" width="2.8346" height="22.6772"/><rect class="cls-12" x="718.5827" y="56.6929" width="2.8346" height="22.6772"/><rect class="cls-12" x="715.748" y="56.6929" width="2.8346" height="22.6772"/><rect class="cls-12" x="710.0787" y="56.6929" width="2.8346" height="22.6772"/><rect class="cls-12" x="704.4094" y="56.6929" width="2.8346" height="22.6772"/><rect class="cls-12" x="693.0709" y="56.6929" width="2.8346" height="22.6772"/><rect class="cls-12" x="690.2362" y="56.6929" width="2.8346" height="22.6772"/><rect class="cls-12" x="687.4016" y="56.6929" width="2.8346" height="22.6772"/><rect class="cls-12" x="684.5669" y="56.6929" width="2.8346" height="22.6772"/><rect class="cls-12" x="681.7323" y="56.6929" width="2.8346" height="22.6772"/><rect class="cls-12" x="678.8976" y="56.6929" width="2.8346" height="22.6772"/><rect class="cls-13" x="678.8976" y="5.6693" width="48.189" height="215.4331"/><rect class="cls-13" x="775.2756" y="5.6693" width="48.189" height="215.4331"/><text class="cls-5" transform="translate(695.7429 20.9388)">0</text><text class="cls-5" transform="translate(743.9225 20.9388)">1</text><text class="cls-5" transform="translate(792.1161 20.9388)">2</text><rect class="cls-12" x="817.7953" y="22.6772" width="2.8346" height="22.6772"/><rect class="cls-12" x="814.9606" y="22.6772" width="2.8346" height="22.6772"/><rect class="cls-12" x="812.126" y="22.6772" width="2.8346" height="22.6772"/><rect class="cls-12" x="800.7874" y="22.6772" width="2.8346" height="22.6772"/><rect class="cls-12" x="797.9528" y="22.6772" width="2.8346" height="22.6772"/><rect class="cls-12" x="792.2835" y="22.6772" width="2.8346" height="22.6772"/><rect class="cls-12" x="778.1102" y="22.6772" width="2.8346" height="22.6772"/><rect class="cls-12" x="775.2756" y="22.6772" width="2.8346" height="22.6772"/><text class="cls-5" transform="translate(622.5824 176.3386)">N<tspan class="cls-6" x="16.6162" y="0">r</tspan><tspan x="22.0127" y="0">-2</tspan></text><text class="cls-5" transform="translate(622.5824 210.3543)">N<tspan class="cls-6" x="16.6162" y="0">r</tspan><tspan x="22.0127" y="0">-1</tspan></text><rect class="cls-14" x="775.2756" y="192.7559" width="48.189" height="22.6772"/><text class="cls-5" transform="translate(340.1575 245.7873)">Ne = 2^p</text><text class="cls-5" transform="translate(788.2648 235.8656)">N<tspan class="cls-6" x="16.6161" y="0">e</tspan></text><text class="cls-5" transform="translate(688.8145 252.8738)">check words</text></svg>